<mxfile host="app.diagrams.net" modified="2024-04-23T16:26:49.735Z" agent="Mozilla/5.0 (X11; Linux x86_64) AppleWebKit/537.36 (KHTML, like Gecko) Chrome/123.0.0.0 Safari/537.36" etag="crygiEdCU5uT8VZkzewh" version="24.2.5" type="github">
  <diagram id="C5RBs43oDa-KdzZeNtuy" name="Page-1">
    <mxGraphModel dx="2390" dy="1183" grid="0" gridSize="10" guides="1" tooltips="1" connect="1" arrows="1" fold="1" page="0" pageScale="1" pageWidth="827" pageHeight="1169" math="0" shadow="0">
      <root>
        <mxCell id="WIyWlLk6GJQsqaUBKTNV-0" />
        <mxCell id="WIyWlLk6GJQsqaUBKTNV-1" parent="WIyWlLk6GJQsqaUBKTNV-0" />
        <mxCell id="zZ7CAmGXWk8gEZRXgI67-36" value="" style="group" vertex="1" connectable="0" parent="WIyWlLk6GJQsqaUBKTNV-1">
          <mxGeometry x="15" y="50" width="1210" height="420" as="geometry" />
        </mxCell>
        <mxCell id="zZ7CAmGXWk8gEZRXgI67-33" value="" style="rounded=1;whiteSpace=wrap;html=1;" vertex="1" parent="zZ7CAmGXWk8gEZRXgI67-36">
          <mxGeometry x="445" y="90" width="480" height="330" as="geometry" />
        </mxCell>
        <mxCell id="zZ7CAmGXWk8gEZRXgI67-29" value="" style="rounded=1;whiteSpace=wrap;html=1;fontSize=13;" vertex="1" parent="zZ7CAmGXWk8gEZRXgI67-36">
          <mxGeometry x="995" y="150" width="190" height="210" as="geometry" />
        </mxCell>
        <mxCell id="zZ7CAmGXWk8gEZRXgI67-27" style="edgeStyle=orthogonalEdgeStyle;rounded=0;orthogonalLoop=1;jettySize=auto;html=1;exitX=1;exitY=0.5;exitDx=0;exitDy=0;entryX=0;entryY=0.5;entryDx=0;entryDy=0;fontSize=13;" edge="1" parent="zZ7CAmGXWk8gEZRXgI67-36" source="zZ7CAmGXWk8gEZRXgI67-22" target="zZ7CAmGXWk8gEZRXgI67-17">
          <mxGeometry relative="1" as="geometry" />
        </mxCell>
        <mxCell id="zZ7CAmGXWk8gEZRXgI67-22" value="" style="rounded=1;whiteSpace=wrap;html=1;fontSize=13;" vertex="1" parent="zZ7CAmGXWk8gEZRXgI67-36">
          <mxGeometry x="460" y="110" width="240" height="290" as="geometry" />
        </mxCell>
        <mxCell id="zZ7CAmGXWk8gEZRXgI67-24" style="edgeStyle=orthogonalEdgeStyle;rounded=0;orthogonalLoop=1;jettySize=auto;html=1;exitX=1;exitY=0.5;exitDx=0;exitDy=0;fontSize=13;" edge="1" parent="zZ7CAmGXWk8gEZRXgI67-36" source="zZ7CAmGXWk8gEZRXgI67-13">
          <mxGeometry relative="1" as="geometry">
            <mxPoint x="445" y="255" as="targetPoint" />
          </mxGeometry>
        </mxCell>
        <mxCell id="zZ7CAmGXWk8gEZRXgI67-13" value="" style="rounded=1;whiteSpace=wrap;html=1;fontSize=13;" vertex="1" parent="zZ7CAmGXWk8gEZRXgI67-36">
          <mxGeometry y="155" width="400" height="200" as="geometry" />
        </mxCell>
        <mxCell id="WIyWlLk6GJQsqaUBKTNV-2" value="" style="rounded=0;html=1;jettySize=auto;orthogonalLoop=1;fontSize=13;endArrow=classic;endFill=1;endSize=8;strokeWidth=1;shadow=0;labelBackgroundColor=none;edgeStyle=orthogonalEdgeStyle;" parent="zZ7CAmGXWk8gEZRXgI67-36" source="WIyWlLk6GJQsqaUBKTNV-3" edge="1">
          <mxGeometry relative="1" as="geometry">
            <mxPoint x="106" y="285" as="targetPoint" />
            <Array as="points">
              <mxPoint x="106" y="285" />
            </Array>
          </mxGeometry>
        </mxCell>
        <mxCell id="zZ7CAmGXWk8gEZRXgI67-2" style="edgeStyle=orthogonalEdgeStyle;rounded=0;orthogonalLoop=1;jettySize=auto;html=1;exitX=1;exitY=0.5;exitDx=0;exitDy=0;entryX=0;entryY=0.5;entryDx=0;entryDy=0;fontSize=13;" edge="1" parent="zZ7CAmGXWk8gEZRXgI67-36" source="WIyWlLk6GJQsqaUBKTNV-3">
          <mxGeometry relative="1" as="geometry">
            <mxPoint x="216" y="215" as="targetPoint" />
          </mxGeometry>
        </mxCell>
        <mxCell id="WIyWlLk6GJQsqaUBKTNV-3" value="&lt;b style=&quot;font-size: 13px;&quot;&gt;Data from Simulation/Observations&lt;/b&gt;" style="rounded=1;whiteSpace=wrap;html=1;fontSize=13;glass=0;strokeWidth=1;shadow=0;" parent="zZ7CAmGXWk8gEZRXgI67-36" vertex="1">
          <mxGeometry x="26" y="185" width="160" height="60" as="geometry" />
        </mxCell>
        <mxCell id="zZ7CAmGXWk8gEZRXgI67-3" value="&lt;b style=&quot;font-size: 13px;&quot;&gt;Preprocessing&lt;/b&gt;&lt;div style=&quot;font-size: 13px;&quot;&gt;&lt;b style=&quot;font-size: 13px;&quot;&gt;and&amp;nbsp;&lt;/b&gt;&lt;/div&gt;&lt;div style=&quot;font-size: 13px;&quot;&gt;&lt;b style=&quot;font-size: 13px;&quot;&gt;Augmentation&lt;/b&gt;&lt;/div&gt;" style="rounded=1;whiteSpace=wrap;html=1;fontSize=13;glass=0;strokeWidth=1;shadow=0;" vertex="1" parent="zZ7CAmGXWk8gEZRXgI67-36">
          <mxGeometry x="216" y="190" width="160" height="50" as="geometry" />
        </mxCell>
        <mxCell id="zZ7CAmGXWk8gEZRXgI67-5" value="&lt;b style=&quot;font-size: 13px;&quot;&gt;Visualization and Testing&lt;/b&gt;" style="rounded=1;whiteSpace=wrap;html=1;fontSize=13;" vertex="1" parent="zZ7CAmGXWk8gEZRXgI67-36">
          <mxGeometry x="76" y="285" width="260" height="40" as="geometry" />
        </mxCell>
        <mxCell id="zZ7CAmGXWk8gEZRXgI67-12" style="edgeStyle=orthogonalEdgeStyle;rounded=0;orthogonalLoop=1;jettySize=auto;html=1;exitX=0.5;exitY=1;exitDx=0;exitDy=0;entryX=0.849;entryY=0.01;entryDx=0;entryDy=0;entryPerimeter=0;fontSize=13;" edge="1" parent="zZ7CAmGXWk8gEZRXgI67-36" source="zZ7CAmGXWk8gEZRXgI67-3" target="zZ7CAmGXWk8gEZRXgI67-5">
          <mxGeometry relative="1" as="geometry" />
        </mxCell>
        <mxCell id="zZ7CAmGXWk8gEZRXgI67-14" value="&lt;b style=&quot;font-size: 13px;&quot;&gt;Learning Type&lt;br style=&quot;font-size: 13px;&quot;&gt;&lt;/b&gt;Discriminitive, Generative, Hybrid" style="rounded=1;whiteSpace=wrap;html=1;fontSize=13;" vertex="1" parent="zZ7CAmGXWk8gEZRXgI67-36">
          <mxGeometry x="475" y="147.5" width="210" height="60" as="geometry" />
        </mxCell>
        <mxCell id="zZ7CAmGXWk8gEZRXgI67-15" value="&lt;b style=&quot;font-size: 13px;&quot;&gt;Tasks&lt;br style=&quot;font-size: 13px;&quot;&gt;&lt;/b&gt;Prediction, Detection,&amp;nbsp;&lt;div style=&quot;font-size: 13px;&quot;&gt;Classification, etc.&lt;/div&gt;" style="rounded=1;whiteSpace=wrap;html=1;fontSize=13;" vertex="1" parent="zZ7CAmGXWk8gEZRXgI67-36">
          <mxGeometry x="475" y="227.5" width="210" height="60" as="geometry" />
        </mxCell>
        <mxCell id="zZ7CAmGXWk8gEZRXgI67-16" value="&lt;b style=&quot;font-size: 13px;&quot;&gt;Deep Learning Methods&lt;br style=&quot;font-size: 13px;&quot;&gt;&lt;/b&gt;FNN, RNN, LSTM,&amp;nbsp;&lt;div style=&quot;font-size: 13px;&quot;&gt;PINN, SINN,&amp;nbsp;&lt;span style=&quot;background-color: initial; font-size: 13px;&quot;&gt;CNN, etc.&lt;/span&gt;&lt;/div&gt;" style="rounded=1;whiteSpace=wrap;html=1;fontSize=13;" vertex="1" parent="zZ7CAmGXWk8gEZRXgI67-36">
          <mxGeometry x="475" y="311" width="210" height="60" as="geometry" />
        </mxCell>
        <mxCell id="zZ7CAmGXWk8gEZRXgI67-17" value="&lt;b style=&quot;font-size: 13px;&quot;&gt;Deep Learning Model&lt;/b&gt;&lt;div style=&quot;font-size: 13px;&quot;&gt;&lt;b style=&quot;font-size: 13px;&quot;&gt;Training&lt;/b&gt;&lt;/div&gt;" style="rounded=1;whiteSpace=wrap;html=1;fontSize=13;" vertex="1" parent="zZ7CAmGXWk8gEZRXgI67-36">
          <mxGeometry x="760" y="222.5" width="150" height="65" as="geometry" />
        </mxCell>
        <mxCell id="zZ7CAmGXWk8gEZRXgI67-19" value="&lt;b style=&quot;font-size: 13px;&quot;&gt;Performance&amp;nbsp;&lt;/b&gt;&lt;div style=&quot;font-size: 13px;&quot;&gt;&lt;b style=&quot;font-size: 13px;&quot;&gt;Analysis&lt;/b&gt;&lt;/div&gt;" style="rounded=1;whiteSpace=wrap;html=1;fontSize=13;" vertex="1" parent="zZ7CAmGXWk8gEZRXgI67-36">
          <mxGeometry x="1015" y="177.5" width="150" height="60" as="geometry" />
        </mxCell>
        <mxCell id="zZ7CAmGXWk8gEZRXgI67-21" value="&lt;b style=&quot;font-size: 13px;&quot;&gt;Model Interpretation&lt;/b&gt;&lt;div style=&quot;font-size: 13px;&quot;&gt;&lt;b style=&quot;font-size: 13px;&quot;&gt;&amp;amp;&lt;/b&gt;&lt;/div&gt;&lt;div style=&quot;font-size: 13px;&quot;&gt;&lt;b style=&quot;font-size: 13px;&quot;&gt;Conclusions&lt;/b&gt;&lt;/div&gt;" style="rounded=1;whiteSpace=wrap;html=1;fontSize=13;" vertex="1" parent="zZ7CAmGXWk8gEZRXgI67-36">
          <mxGeometry x="1015" y="267.5" width="150" height="70" as="geometry" />
        </mxCell>
        <mxCell id="zZ7CAmGXWk8gEZRXgI67-30" style="edgeStyle=orthogonalEdgeStyle;rounded=0;orthogonalLoop=1;jettySize=auto;html=1;fontSize=13;entryX=0;entryY=0.5;entryDx=0;entryDy=0;" edge="1" parent="zZ7CAmGXWk8gEZRXgI67-36" target="zZ7CAmGXWk8gEZRXgI67-29">
          <mxGeometry relative="1" as="geometry">
            <mxPoint x="925" y="255" as="sourcePoint" />
            <mxPoint x="950" y="255" as="targetPoint" />
          </mxGeometry>
        </mxCell>
        <mxCell id="zZ7CAmGXWk8gEZRXgI67-31" value="&lt;h1 style=&quot;margin-top: 0px;&quot;&gt;Step 1&lt;/h1&gt;&lt;p&gt;&lt;b&gt;&lt;font style=&quot;font-size: 16px;&quot;&gt;Data Understanding and Processing&lt;/font&gt;&lt;/b&gt;&lt;/p&gt;" style="text;html=1;whiteSpace=wrap;overflow=hidden;rounded=0;align=center;" vertex="1" parent="zZ7CAmGXWk8gEZRXgI67-36">
          <mxGeometry x="20" y="62.5" width="360" height="77.5" as="geometry" />
        </mxCell>
        <mxCell id="zZ7CAmGXWk8gEZRXgI67-32" value="&lt;h1 style=&quot;margin-top: 0px;&quot;&gt;Step 2&lt;/h1&gt;&lt;p&gt;&lt;b&gt;&lt;font style=&quot;font-size: 16px;&quot;&gt;Model Building and Training&lt;/font&gt;&lt;/b&gt;&lt;/p&gt;" style="text;html=1;whiteSpace=wrap;overflow=hidden;rounded=0;align=center;" vertex="1" parent="zZ7CAmGXWk8gEZRXgI67-36">
          <mxGeometry x="535" width="360" height="77.5" as="geometry" />
        </mxCell>
        <mxCell id="zZ7CAmGXWk8gEZRXgI67-35" value="&lt;h1 style=&quot;margin-top: 0px;&quot;&gt;Step 3&lt;/h1&gt;&lt;p&gt;&lt;b&gt;&lt;font style=&quot;font-size: 16px;&quot;&gt;Validation &amp;amp; Interpretation&lt;/font&gt;&lt;/b&gt;&lt;/p&gt;" style="text;html=1;whiteSpace=wrap;overflow=hidden;rounded=0;align=center;" vertex="1" parent="zZ7CAmGXWk8gEZRXgI67-36">
          <mxGeometry x="970" y="62.5" width="240" height="77.5" as="geometry" />
        </mxCell>
      </root>
    </mxGraphModel>
  </diagram>
</mxfile>
